# xmcd CD database file
#
# Track frame offsets:
#	150
#	10445
#	22531
#	45859
#	75710
#	108728
#	135036
#	155965
#	180489
#	203585
#	221848
#	237945
#	255700
#	271696
#	296894
#	329640
#
# Disc length: 4771 seconds
#
# Revision: 0
# Processed by: cddbd v1.5.2PL0 Copyright (c) Steve Scherf et al.
# Submitted via: CDex 1.51
#
DISCID=da12a110
DTITLE=Bonamassa, Joe  - An Acoustic Evening At The Vienna Opera House
DYEAR=2012
DGENRE=Blues
TTITLE0=Palm Trees, Helicopters and Guns
TTITLE1=Jelly Roll
TTITLE2=Dust Bowl
TTITLE3=Slow Train
TTITLE4=The Ballad Of John Henry
TTITLE5=Dislocated Boy
TTITLE6=High Water Everywhere
TTITLE7=Jockey Full Of Bourbon
TTITLE8=Richmond 
TTITLE9=Stones In My Passway
TTITLE10=Ball Peen Hammer
TTITLE11=Black Lung Heartache
TTITLE12=Mountain Time
TTITLE13=Woke Up Dreaming
TTITLE14=Sloe Gin
TTITLE15=Seagull
EXTD=YEAR: 2012
EXTT0=
EXTT1=
EXTT2=
EXTT3=
EXTT4=
EXTT5=
EXTT6=
EXTT7=
EXTT8=
EXTT9=
EXTT10=
EXTT11=
EXTT12=
EXTT13=
EXTT14=
EXTT15=
PLAYORDER=
